<?xml version="1.0" standalone="no"?>
<!DOCTYPE svg PUBLIC "-//W3C//DTD SVG 20010904//EN"
 "http://www.w3.org/TR/2001/REC-SVG-20010904/DTD/svg10.dtd">
<svg version="1.0" xmlns="http://www.w3.org/2000/svg"
 width="200.000000pt" height="190.000000pt" viewBox="0 0 200.000000 190.000000"
 preserveAspectRatio="xMidYMid meet">
<metadata>
Created by potrace 1.16, written by Peter Selinger 2001-2019
</metadata>
<g transform="translate(0.000000,190.000000) scale(0.100000,-0.100000)"
fill="#000000" stroke="none">
<path d="M972 1888 c-15 -15 -16 -85 -1 -126 7 -22 7 -36 -1 -51 -10 -20 -8
-21 34 -21 45 0 45 0 34 25 -8 19 -8 31 0 50 16 34 15 108 0 123 -7 7 -21 12
-33 12 -12 0 -26 -5 -33 -12z"/>
<path d="M492 1788 c-7 -7 -12 -19 -12 -28 0 -21 65 -97 90 -105 14 -4 20 -15
20 -36 0 -34 -1 -34 45 -12 41 20 43 25 12 42 -14 8 -28 28 -35 54 -20 74 -85
120 -120 85z"/>
<path d="M1442 1785 c-23 -17 -62 -84 -62 -108 0 -7 -11 -20 -25 -27 -33 -18
-32 -26 6 -39 42 -15 49 -14 49 5 0 8 25 38 56 66 47 44 55 55 52 82 -2 25 -8
32 -28 34 -14 1 -35 -5 -48 -13z"/>
<path d="M835 1655 c-89 -16 -189 -53 -262 -96 -79 -47 -201 -171 -236 -240
-76 -153 -76 -315 0 -468 35 -69 156 -193 235 -240 68 -39 201 -87 278 -99 49
-8 52 -10 27 -17 -18 -5 -29 -16 -33 -34 -10 -47 -12 -47 -13 0 -1 41 -4 47
-25 51 -19 4 -34 -5 -65 -36 -23 -23 -41 -44 -41 -48 0 -10 40 -17 45 -7 7 10
35 0 53 -18 16 -16 42 -17 42 -2 0 8 5 8 15 -1 10 -8 33 -11 65 -8 28 3 53 1
57 -4 6 -12 133 -3 142 9 3 5 43 8 87 9 87 0 114 11 114 46 0 10 -10 22 -22
27 -21 8 -21 8 3 14 17 5 28 2 36 -11 38 -54 37 -54 57 -39 19 14 19 15 0 46
-16 28 -17 33 -4 41 11 7 21 2 40 -20 27 -32 36 -35 60 -20 12 7 11 13 -10 37
l-25 28 26 -23 27 -23 40 20 c22 11 42 24 44 28 1 5 29 25 60 46 38 25 55 42
52 52 -4 10 3 18 20 25 15 5 29 17 33 27 4 9 15 25 26 36 12 12 18 29 15 47
-3 22 -1 26 14 22 13 -3 22 5 34 33 15 38 13 65 -6 65 -6 0 -15 -11 -20 -25
-12 -32 -24 -33 -16 -1 9 35 -22 44 -35 9 -5 -14 -12 -23 -15 -20 -3 3 -1 14
5 25 15 28 14 32 -8 32 -14 0 -25 -14 -37 -47 -10 -26 -27 -56 -37 -66 -13
-13 -18 -29 -15 -49 4 -24 2 -29 -13 -25 -10 3 -25 -3 -34 -13 -15 -16 -14
-20 11 -49 26 -31 26 -32 8 -46 -26 -19 -30 -19 -68 10 -30 23 -34 24 -47 9
-12 -14 -9 -20 17 -44 30 -26 30 -27 11 -39 -17 -11 -24 -9 -51 18 -24 23 -35
28 -49 20 -9 -6 -14 -16 -11 -22 4 -7 4 -9 0 -5 -4 3 -44 -9 -89 -28 -45 -19
-91 -34 -102 -34 -12 0 -30 -6 -41 -14 -17 -13 -17 -18 -6 -36 7 -12 11 -24 8
-27 -6 -6 -45 37 -46 50 0 4 -13 7 -29 7 -25 0 -30 -5 -38 -38 -7 -28 -14 -36
-28 -34 -10 2 -21 -2 -25 -9 -5 -6 -15 -9 -24 -6 -18 7 -20 16 -7 36 8 12 13
12 24 3 14 -12 47 -7 47 7 0 27 -62 41 -98 22 -11 -6 -23 -5 -35 3 -14 11 2
14 96 19 133 7 229 32 347 90 152 75 286 232 319 377 13 58 13 172 0 230 -40
175 -213 350 -415 421 -139 48 -313 61 -459 34z m345 -171 c146 -43 268 -139
324 -254 27 -57 31 -75 31 -150 0 -74 -4 -93 -29 -145 -151 -309 -668 -372
-927 -114 -31 31 -69 83 -85 115 -25 51 -29 71 -29 144 0 72 4 94 27 143 64
137 214 241 398 277 64 13 225 4 290 -16z"/>
<path d="M922 1408 c-13 -13 -16 -68 -4 -68 5 0 19 11 32 25 26 28 60 33 60
10 0 -8 -8 -15 -18 -15 -27 0 -62 -29 -62 -50 0 -11 9 -25 20 -32 28 -18 25
-38 -6 -38 -23 0 -25 2 -14 15 9 11 10 19 3 26 -7 7 -20 2 -41 -15 -16 -14
-42 -26 -56 -26 -19 0 -26 -5 -26 -20 0 -15 7 -20 24 -20 18 0 25 -6 28 -22 5
-34 38 -37 38 -4 0 22 4 26 30 26 30 0 30 0 29 -57 0 -56 -2 -59 -42 -88 -23
-17 -48 -44 -57 -60 -8 -17 -16 -32 -18 -34 -1 -2 -20 10 -41 27 -22 18 -45
32 -50 32 -12 0 -14 -36 -5 -104 6 -44 8 -46 25 -30 17 15 20 15 48 -6 17 -12
31 -30 31 -42 0 -30 53 -74 104 -87 117 -29 186 2 186 84 0 14 2 25 4 25 2 0
11 3 20 6 12 4 16 0 16 -15 0 -12 6 -21 15 -21 11 0 15 11 15 37 0 35 1 35 19
19 17 -16 19 -15 25 21 9 59 7 113 -5 113 -6 0 -29 -15 -52 -33 -23 -18 -54
-38 -69 -44 -14 -7 -29 -21 -33 -32 -7 -23 -13 -25 -34 -12 -10 6 -16 35 -19
89 -4 80 -4 80 24 95 39 20 70 56 78 90 3 15 13 27 21 27 22 0 19 40 -2 40
-10 1 -38 19 -62 41 -35 31 -44 46 -44 72 1 48 -22 67 -77 67 -25 0 -51 -5
-58 -12z"/>
<path d="M153 1523 c-20 -8 -15 -40 9 -63 12 -11 47 -28 78 -37 30 -9 65 -26
78 -37 l22 -19 25 23 c32 30 32 40 -3 40 -19 0 -38 11 -58 31 -49 52 -113 78
-151 62z"/>
<path d="M1774 1516 c-17 -8 -47 -30 -67 -50 -23 -22 -46 -36 -62 -36 -32 0
-32 -10 0 -40 l25 -23 23 20 c12 12 40 26 62 32 49 13 104 46 111 66 8 21 -14
45 -40 45 -11 -1 -35 -7 -52 -14z"/>
<path d="M13 1129 c-20 -20 -16 -37 12 -55 21 -14 37 -15 83 -9 31 5 81 8 110
8 l52 -1 0 35 c0 31 -2 34 -23 27 -12 -5 -31 -7 -42 -7 -11 1 -56 5 -100 8
-59 5 -83 4 -92 -6z"/>
<path d="M1730 1104 c0 -36 0 -36 36 -30 19 4 68 2 109 -5 83 -14 125 -4 125
30 0 43 -26 46 -200 29 -8 -1 -27 1 -42 5 -27 7 -28 6 -28 -29z"/>
<path d="M235 920 c-3 -5 -3 -14 0 -20 3 -5 -14 -15 -39 -22 -49 -13 -51 -15
-37 -37 7 -11 17 -12 52 -3 44 11 79 0 40 -13 -27 -8 -51 -32 -51 -51 0 -23
38 -54 67 -54 24 0 25 -1 9 -13 -17 -12 -17 -14 -1 -27 13 -11 21 -11 36 -2
17 11 18 10 8 -15 -7 -20 -6 -30 4 -41 13 -12 19 -12 43 3 29 17 29 17 6 -2
-18 -14 -20 -21 -10 -31 6 -6 16 -12 21 -12 5 0 20 -11 33 -25 15 -16 34 -25
53 -25 23 0 28 -4 24 -19 -6 -23 24 -36 45 -19 12 10 14 10 9 1 -5 -8 9 -21
42 -38 59 -29 57 -29 65 -10 3 9 -5 20 -22 29 l-27 14 35 -1 c23 -1 34 2 32
11 -1 6 4 12 12 12 34 0 23 21 -24 45 -27 14 -50 23 -50 20 0 -3 -9 -1 -21 6
-17 9 -25 7 -45 -12 -13 -12 -24 -18 -24 -12 0 6 7 13 15 17 34 13 12 46 -55
82 -19 10 -40 26 -46 34 -10 11 -17 12 -38 2 -24 -11 -25 -10 -14 14 9 18 9
27 0 36 -7 7 -12 20 -12 29 0 29 -17 31 -59 9 -69 -35 -88 -20 -22 17 l39 23
-30 55 c-28 52 -49 67 -63 45z"/>
<path d="M337 317 c-16 -11 -17 -30 -15 -162 l3 -150 665 0 665 0 3 149 c2
101 -1 153 -9 162 -16 20 -1286 21 -1312 1z"/>
</g>
</svg>
