<svg xmlns="http://www.w3.org/2000/svg" xmlns:xlink="http://www.w3.org/1999/xlink" viewBox="0 0 112.56 118.06"><defs><style>.cls-1,.cls-12{fill:none;stroke-miterlimit:10;}.cls-1{stroke:#d1dced;stroke-linecap:round;stroke-width:0.5px;stroke-dasharray:3 2;}.cls-2{fill:#f5f8ff;}.cls-3{fill:#fff;}.cls-4{opacity:0.74;fill:url(#linear-gradient);}.cls-5{opacity:0.1;fill:url(#linear-gradient-2);}.cls-6{fill:#3f00c3;}.cls-7{fill:#d6d7fd;}.cls-8{fill:url(#linear-gradient-3);}.cls-9{fill:#ffc401;}.cls-10{opacity:0.5;fill:url(#linear-gradient-4);}.cls-11{fill:url(#linear-gradient-5);}.cls-12{stroke:#3f00c3;stroke-width:0.26px;}.cls-13{fill:#bec9e5;}.cls-14{fill:#dfe6fe;}</style><linearGradient id="linear-gradient" x1="35.34" y1="111.91" x2="21.21" y2="60.29" gradientUnits="userSpaceOnUse"><stop offset="0" stop-color="#b8b9eb"/><stop offset="1" stop-color="#c7cbf9" stop-opacity="0"/></linearGradient><linearGradient id="linear-gradient-2" x1="7.76" y1="85.16" x2="49.75" y2="85.16" xlink:href="#linear-gradient"/><linearGradient id="linear-gradient-3" x1="49.33" y1="51.82" x2="42.02" y2="50.95" xlink:href="#linear-gradient"/><linearGradient id="linear-gradient-4" x1="40.52" y1="109.38" x2="40.52" y2="63.84" gradientUnits="userSpaceOnUse"><stop offset="0" stop-color="#e29f1a"/><stop offset="1" stop-color="#ffc401" stop-opacity="0"/></linearGradient><linearGradient id="linear-gradient-5" x1="25.88" y1="74.32" x2="28.13" y2="64.4" xlink:href="#linear-gradient"/></defs><title>start-2</title><g id="Capa_2" data-name="Capa 2"><g id="OBJECTS"><path class="cls-1" d="M18.68,14.82C12,20.6-1,24.19.35,43.07c1.24,17.58,17.17,24.29,17.42,35.8s-7.5,22.74-4,30.62,16.42,9.68,28.58,7.41,26.5-12.27,41-9,24.21,2.77,27.21-6.36-6.37-23.63-3.5-37.77c4-19.67-5.49-42.78-21.5-54.83C71.51-1.62,38.9-2.67,18.68,14.82Z"/><path class="cls-2" d="M83.26,89.51C78.58,98,69,103.31,54.72,104.19c-.92,0-1.85.09-2.81.11s-1.7,0-2.57,0h-.65a35.65,35.65,0,0,0-13.77,3,30.37,30.37,0,0,1-4.16,1.52,15.59,15.59,0,0,1-10.07-.45,13.67,13.67,0,0,1-5.81-4.56l0,0v0a11.33,11.33,0,0,1-1.46-2.69A11.84,11.84,0,0,1,13,95.21h0c.27-1.83.77-3.67,1.2-5.42a17.94,17.94,0,0,0,.69-5.15,78,78,0,0,0-3.83-19.49c-.35-1.09-.69-2.14-1-3.16a40.66,40.66,0,0,1-1.41-5.79C7.51,48.8-8.24,11,39.87,1.38,77.57-6.2,80.4,19.59,84.51,26.73c7,12.14,26.52,18,27.83,28C115.18,76.39,89.26,78.63,83.26,89.51Z"/><path class="cls-3" d="M48.69,104.31a35.65,35.65,0,0,0-13.77,3,30.37,30.37,0,0,1-4.16,1.52,15.59,15.59,0,0,1-10.07-.45,13.48,13.48,0,0,1-5.81-4.56l0,0v0c-.07-.33-.83-3.82-1.85-8.61h0C10.77,84.7,7.34,68,7.34,64.47c0-1,1-1.8,2.72-2.49C17.32,59,36.77,58.71,39,60.46S46.88,93.87,48.69,104.31Z"/><path class="cls-4" d="M48.69,104.31a35.65,35.65,0,0,0-13.77,3,30.37,30.37,0,0,1-4.16,1.52,15.59,15.59,0,0,1-10.07-.45,13.48,13.48,0,0,1-5.81-4.56l0,0v0c-.07-.33-.83-3.82-1.85-8.61h0C10.77,84.7,7.34,68,7.34,64.47c0-1,1-1.8,2.72-2.49C17.32,59,36.77,58.71,39,60.46S46.88,93.87,48.69,104.31Z"/><path class="cls-5" d="M51.91,104.3c-.84,0-1.7,0-2.57,0h-.65a35.65,35.65,0,0,0-13.77,3,30.37,30.37,0,0,1-4.16,1.52,15.59,15.59,0,0,1-10.07-.45,13.28,13.28,0,0,1-2.89-1.63c-.16-.74-.9-4.14-1.86-8.68h0c-.54-2.51-1.14-5.37-1.74-8.33C12.2,80.09,9.93,68,9.93,65.26a2,2,0,0,1,.92-1.52,8.25,8.25,0,0,1,1.87-1c7.43-3,27.54-2,29.8-.15S49.66,91.52,51.91,104.3Z"/><path class="cls-6" d="M58.81,42s-2.26,8.09-3.86,13.83c-2.17,7.83-10.77-8.29-10.77-8.29l6.38-10.34"/><path class="cls-7" d="M48.94,46.4s-1.48,3.15-.74,5.87,7,3.55,7,3.55a7.76,7.76,0,0,1-3.89,6.94c-4.2,2.35-15.93,1.11-16.55-10.5h0a4.88,4.88,0,0,0,5.15-3.66,33.13,33.13,0,0,1,4.13-9.73Z"/><path class="cls-8" d="M48.94,46.4s-1.48,3.15-.74,5.87,7,3.55,7,3.55a7.76,7.76,0,0,1-3.89,6.94c-4.2,2.35-15.93,1.11-16.55-10.5h0a4.88,4.88,0,0,0,5.15-3.66,33.13,33.13,0,0,1,4.13-9.73Z"/><path class="cls-7" d="M65.89,35.78S64.5,48.28,55.6,50.69,43.2,40.32,43.2,40.32s-5.57-4-5.2-8.9S46,18,53.1,18.36,69,26.72,65.89,35.78Z"/><path class="cls-6" d="M65.21,29.48s-8.81,11.19-21.76,4c0,0-2.72,4.09-.12,6.5A92.65,92.65,0,0,0,40,49.62c-.88,2.88-11.44,4.66-11.44,4.66s-4-6.51.88-14.86c3-5.11,7.57-6.54,8.6-11.06,1.88-8.22,5.73-14.53,15.55-13.42S67.24,23.46,65.21,29.48Z"/><path class="cls-7" d="M55.23,56.19s3.34.73,4.31,1.83a7.71,7.71,0,0,1,1.84,5.39c0,2.34-5.25,23.1-5.25,23.1L49.26,74.21Z"/><path class="cls-7" d="M56.32,83.25s-1.31,4.5,0,5.63,6.37,2.94,6.37,2.94l-1.31,3.94s-6.81-.31-9.44-1.75-.45-10.75-.45-10.75Z"/><path class="cls-9" d="M56.62,89.32c-1.49,4.12-1.87,10.24-1.9,14.87-1.72.1-3.52.15-5.38.12a35.19,35.19,0,0,0-14.42,3,30.37,30.37,0,0,1-4.16,1.52,15.59,15.59,0,0,1-10.07-.45c3.12-6.18,5.86-17.88,5.46-21.06-.46-3.61-2.23-8.8-3.43-16.39a31.38,31.38,0,0,1,1.33-14.33A20.31,20.31,0,0,1,36.53,52.1c.81,4,5.49,8.25,10.06,8.56s3.91-6.34,3.91-6.34A15.88,15.88,0,0,1,56.13,56c-.92,7.91,4,16.45,4.2,20.06S59.31,81.91,56.62,89.32Z"/><path class="cls-10" d="M56.62,89.32c-1.49,4.12-1.87,10.24-1.9,14.87-1.72.1-3.52.15-5.38.12a35.19,35.19,0,0,0-14.42,3,30.37,30.37,0,0,1-4.16,1.52,15.59,15.59,0,0,1-10.07-.45c3.12-6.18,5.86-17.88,5.46-21.06-.46-3.61-2.23-8.8-3.43-16.39a31.38,31.38,0,0,1,1.33-14.33A20.31,20.31,0,0,1,36.53,52.1c.81,4,5.49,8.25,10.06,8.56s3.91-6.34,3.91-6.34A15.88,15.88,0,0,1,56.13,56c-.92,7.91,4,16.45,4.2,20.06S59.31,81.91,56.62,89.32Z"/><path class="cls-7" d="M31.79,59.67s3.56,15.43-4.22,16.65C20.76,77.38,22,66.69,22,66.69"/><path class="cls-11" d="M31.79,59.67s3.56,15.43-4.22,16.65C20.76,77.38,22,66.69,22,66.69"/><path class="cls-7" d="M51,99.55c-1.12-.23-3.25.33-4.29.29a8.93,8.93,0,0,1-2.5-.67,143.78,143.78,0,0,1-17.27-7.88C17.49,86,19.5,84,19.5,84S35.89,65.86,31.09,57.86L31,57.73a4.74,4.74,0,0,0-7.47-.65C17.68,63.31,7.3,79.52,8.8,87.44,10.64,97.2,34,100,40.71,100.66h0a6.81,6.81,0,0,1,2.92,1.43,3.71,3.71,0,0,0,2.42.79h8.87S53.43,100,51,99.55Z"/><path class="cls-6" d="M61.6,26.9s.84,7,4.42,9.6c0,0,9.71-11.57-6.48-19.58"/><path class="cls-12" d="M42.35,19.71a58.53,58.53,0,0,1-5.5,8.58C34.43,31,29.33,34.55,26.42,39.42s2,12.68,2,12.68"/><polygon class="cls-13" points="92.96 104.81 52.46 104.81 63.39 75.88 103.89 75.88 104.8 76.78 92.96 104.81"/><rect class="cls-13" x="35.43" y="102.88" width="19.29" height="1.93"/><polygon class="cls-14" points="94.21 104.81 53.71 104.81 64.3 76.78 104.8 76.78 94.21 104.81"/><circle class="cls-3" cx="79.68" cy="90.79" r="3.62"/></g></g></svg>