<svg xmlns="http://www.w3.org/2000/svg" xmlns:xlink="http://www.w3.org/1999/xlink" viewBox="0 0 114.56 123.92"><defs><style>.cls-1{fill:#e8effc;}.cls-2{fill:#f5f8ff;}.cls-3,.cls-4{fill:#d9e4f9;}.cls-3{opacity:0.8;}.cls-5{fill:#ffc401;}.cls-6{opacity:0.5;fill:url(#linear-gradient);}.cls-7{fill:#d6d7fd;}.cls-8{fill:url(#linear-gradient-2);}.cls-9{fill:url(#linear-gradient-3);}.cls-10{fill:#dfe6fe;}.cls-11{fill:#fff;}.cls-12{fill:url(#linear-gradient-4);}.cls-13{fill:#3f00c3;}.cls-14{fill:none;stroke:#3f00c3;stroke-miterlimit:10;stroke-width:0.26px;}.cls-15{fill:url(#linear-gradient-5);}.cls-16{fill:#c9d2f7;opacity:0.46;}.cls-17{fill:#c7cbf9;}.cls-18{fill:#e2e6fa;}.cls-19{fill:url(#linear-gradient-6);}</style><linearGradient id="linear-gradient" x1="73.1" y1="108.15" x2="73.1" y2="77.91" gradientUnits="userSpaceOnUse"><stop offset="0" stop-color="#e29f1a"/><stop offset="1" stop-color="#ffc401" stop-opacity="0"/></linearGradient><linearGradient id="linear-gradient-2" x1="54.74" y1="91.43" x2="61.49" y2="86.51" gradientUnits="userSpaceOnUse"><stop offset="0" stop-color="#b8b9eb"/><stop offset="1" stop-color="#c7cbf9" stop-opacity="0"/></linearGradient><linearGradient id="linear-gradient-3" x1="19.81" y1="48.48" x2="18.65" y2="50.08" xlink:href="#linear-gradient-2"/><linearGradient id="linear-gradient-4" x1="52.84" y1="51.76" x2="40.46" y2="43.26" xlink:href="#linear-gradient-2"/><linearGradient id="linear-gradient-5" x1="34.62" y1="40.96" x2="37.32" y2="43.16" xlink:href="#linear-gradient-2"/><linearGradient id="linear-gradient-6" x1="87.71" y1="102.82" x2="83.47" y2="84.37" xlink:href="#linear-gradient-2"/></defs><title>start-1</title><g id="Capa_2" data-name="Capa 2"><g id="OBJECTS"><path class="cls-1" d="M106.68,89.84A33.88,33.88,0,0,1,104,94.9a9,9,0,0,1-2.15,2.23,12.12,12.12,0,0,1-5,2,43.64,43.64,0,0,1-7.28.62c-6.32.15-13.69.06-20.74,3.51-.29.13-.57.28-.86.43-4.78,2.55-7.24,6.51-10.17,10.26-2.48,3.17-5.3,6.18-10.16,8.08-10.61,4.14-24.19.82-33.22-4.52a33.21,33.21,0,0,1-4.85-3.43,18.87,18.87,0,0,1-3.4-3.71c-1.32-2-1.67-5-1.58-8.39,0-1.26.11-2.56.23-3.88C5.22,93.67,6,89.06,6,85.72c0-7,0,0-5-20.15S11.32,35.62,27.85,33c11.81-1.86,16.85-12,18.77-17.58C48.12,11,54.65,2.93,59,1.14c15.66-6.5,43.57,16.24,52,33.5a36.24,36.24,0,0,1,3.22,11.8c.12,1,.21,2.06.26,3.11C115.29,64,110.84,80.56,106.68,89.84Z"/><path class="cls-2" d="M14.43,87.22v30.32a33.21,33.21,0,0,1-4.85-3.43V87.22Z"/><path class="cls-2" d="M106.68,46.44v43.4A33.88,33.88,0,0,1,104,94.9a9,9,0,0,1-2.15,2.23V46.44Z"/><path class="cls-2" d="M14.43,87.22v30.32c-.64-.38-1.26-.76-1.85-1.16a30.55,30.55,0,0,1-3-2.27V87.22Z"/><path class="cls-2" d="M106.68,46.44v43.4a40.7,40.7,0,0,1-1.85,3.69c-.29.51-.58,1-.85,1.37a9,9,0,0,1-2.15,2.23V46.44Z"/><path class="cls-3" d="M14.43,90.22v27.32c-.64-.38-1.26-.76-1.85-1.16V90.22Z"/><path class="cls-3" d="M106.68,49.44v40.4a40.7,40.7,0,0,1-1.85,3.69V49.44Z"/><path class="cls-2" d="M6,85.72c0-7,0,0-5-20.15S11.3,35.62,27.83,33c11.81-1.86,16.85-12,18.77-17.58C48.1,11,54.63,2.93,59,1.14c15.66-6.5,43.57,16.24,52,33.5a36.24,36.24,0,0,1,3.22,11.8L4.81,98.13C5.2,93.67,6,89.06,6,85.72Z"/><path class="cls-4" d="M114.19,46.44,4.83,98.13c-.12,1.32-.21,2.62-.23,3.88L114.45,49.55Z"/><path class="cls-5" d="M89.58,99.78c-6.58.16-14.29,0-21.6,3.94-4.78,2.55-7.24,6.51-10.17,10.26a85.45,85.45,0,0,0-2.22-9.66c-1.33-4.17-3.79-5.69-3.8-11.31,0-3.67,4.31-13.38,10.13-18s21.75-15,25.25-15.15,5.52,2.59,7,8.75C95.34,73.37,91.32,85.62,89.58,99.78Z"/><path class="cls-6" d="M89.58,99.78c-6.58.16-14.29,0-21.6,3.94-4.78,2.55-7.24,6.51-10.17,10.26a85.45,85.45,0,0,0-2.22-9.66c-1.33-4.17-3.79-5.69-3.8-11.31,0-3.67,4.31-13.38,10.13-18s21.75-15,25.25-15.15,5.52,2.59,7,8.75C95.34,73.37,91.32,85.62,89.58,99.78Z"/><path class="cls-7" d="M54.25,88.15c-.73,2.57-2,9.5,4.88,9.5,2.39,0,8.18-4.33,8.16-14.08C67.29,80.07,60,68,54.25,88.15Z"/><path class="cls-8" d="M54.25,88.15c-.73,2.57-2,9.5,4.88,9.5,2.39,0,8.18-4.33,8.16-14.08C67.29,80.07,60,68,54.25,88.15Z"/><path class="cls-7" d="M62.6,89.78c-6,2.62-22.47,6.12-30.55-1.75s-12.71-22.92-14.33-28c-1.29-4-3.6-8.23-3.25-11.46a9.56,9.56,0,0,1,1.29-4.41l.11-.55,3.28,9.75a4,4,0,0,0-.05.71A7.24,7.24,0,0,0,20,57.47c2.31,4.25,9.55,17.05,15.15,20.68,5.28,3.42,21.31-3.25,27.4-1.27C69.45,79.13,68.58,87.15,62.6,89.78Z"/><path class="cls-9" d="M20.32,58H17c-1.28-3.38-2.82-6.73-2.53-9.41a9.57,9.57,0,0,1,1.29-4.41l.11-.55,3.28,9.75a4,4,0,0,0,0,.71A7.24,7.24,0,0,0,20,57.47Z"/><path class="cls-10" d="M44,47.61,22.44,57.37a1.19,1.19,0,0,1-1.59-.63l-13-31.28a1.19,1.19,0,0,1,.61-1.54L30,14.16a1.19,1.19,0,0,1,1.59.63l13,31.28A1.19,1.19,0,0,1,44,47.61Z"/><path class="cls-2" d="M42.07,45,22.18,54a.79.79,0,0,1-1.05-.42L9.65,26a.79.79,0,0,1,.4-1l19.89-9a.79.79,0,0,1,1.05.42L42.47,44A.79.79,0,0,1,42.07,45Z"/><circle class="cls-2" cx="33.42" cy="50.67" r="0.85"/><circle class="cls-10" cx="26.42" cy="20.05" r="0.85"/><circle class="cls-10" cx="28.83" cy="18.91" r="0.85"/><path class="cls-10" d="M24,21.93,12.18,27.3a.69.69,0,0,1-.91-.34h0a.69.69,0,0,1,.34-.91l11.78-5.37a.69.69,0,0,1,.91.34h0A.69.69,0,0,1,24,21.93Z"/><path class="cls-10" d="M25.12,24.53,13.34,29.89a.69.69,0,0,1-.91-.34h0a.69.69,0,0,1,.34-.91l11.78-5.37a.69.69,0,0,1,.91.34h0A.69.69,0,0,1,25.12,24.53Z"/><path class="cls-10" d="M26.12,27.18,14.34,32.55a.69.69,0,0,1-.91-.34h0a.69.69,0,0,1,.34-.91l11.78-5.37a.69.69,0,0,1,.91.34h0A.69.69,0,0,1,26.12,27.18Z"/><path class="cls-10" d="M35,30.65,17.24,38.72a1,1,0,0,1-1.37-.51h0a1,1,0,0,1,.51-1.37l17.73-8.08a1,1,0,0,1,1.37.51h0A1,1,0,0,1,35,30.65Z"/><path class="cls-11" d="M36.56,34.59,18.82,42.67a1,1,0,0,1-1.37-.51h0A1,1,0,0,1,18,40.78L35.7,32.7a1,1,0,0,1,1.37.51h0A1,1,0,0,1,36.56,34.59Z"/><path class="cls-11" d="M38.31,38.27,20.57,46.35a1,1,0,0,1-1.37-.51h0a1,1,0,0,1,.51-1.37l17.73-8.08a1,1,0,0,1,1.37.51h0A1,1,0,0,1,38.31,38.27Z"/><path class="cls-11" d="M39.87,42.1,22.13,50.18a1,1,0,0,1-1.37-.51h0a1,1,0,0,1,.51-1.37L39,40.22a1,1,0,0,1,1.37.51h0A1,1,0,0,1,39.87,42.1Z"/><path class="cls-7" d="M86.05,73.2c-4,4.62-15.48,0-21.11-8.88S44.87,45.2,44.87,45.2c-3.44-1.87-5.35-1-6.62-1.08l-.46-.06h0a4.55,4.55,0,0,1-2.94-1.54,4.21,4.21,0,0,1-.58-2.57c-.23-.26-4.11-2.91-4.41-3.28a.92.92,0,0,1-.1-.89c.48-.19,4.23,1.39,5,1.92s2.58-.39,4.94.71C51.79,44,90.05,68.57,86.05,73.2Z"/><path class="cls-12" d="M86.05,73.2c-4,4.62-15.48,0-21.11-8.88S44.87,45.2,44.87,45.2c-3.44-1.87-5.35-1-6.62-1.08l-.46-.06h0a4.55,4.55,0,0,1-2.94-1.54,4.21,4.21,0,0,1-.58-2.57c-.23-.26-4.11-2.91-4.41-3.28a.92.92,0,0,1-.1-.89c.48-.19,4.23,1.39,5,1.92s2.58-.39,4.94.71C51.79,44,90.05,68.57,86.05,73.2Z"/><path class="cls-7" d="M55.05,50.34C55,56.4,58.21,60.52,62.47,60.86s11.41-.12,12.82-6.41c2-9,1.39-18.9-3.68-22.28C67.2,29.23,55.36,26.23,55.05,50.34Z"/><path class="cls-7" d="M18.37,45.21c-.29.1-.45.48-.54,1.06s.26,1.81.23,2.3-.16,1.27-.48.83-.92.77-.92.84,2.45,3.6,2.45,3.6.82-3.53.84-4.42a15.82,15.82,0,0,0-1.16-3.87C18.62,45.22,18.5,45.17,18.37,45.21Z"/><path class="cls-13" d="M94.24,63.7a.11.11,0,0,0,0,0c-3-9.44-8.29-8.55-6.18-16.49,1.33-5,.52-13.49-4.77-18.82-7.8-7.87-30.73-8.55-29.5,7.51C53.7,37.4,54,42,60.15,45.57a7.86,7.86,0,0,1,4.56,3.9,3.7,3.7,0,0,1-.41,3.89,2.42,2.42,0,0,1-2.49.87c-.46,3.28-1.24,7.72-.68,12.34a15,15,0,0,0,3.64,8.21,42.55,42.55,0,0,1,4.11,5.28,18.2,18.2,0,0,0,4.62,4.45h0c2.12,1.91,10.74,3.82,18.11-3.3C98.1,75,94.69,65.14,94.24,63.7Z"/><path class="cls-14" d="M84.05,29.94s7.12,6.25,5.47,20.17c-1.2,10.09,13.48,8,4.71,26.57"/><path class="cls-14" d="M62,56.59A58.4,58.4,0,0,0,60,70c0,6.16,7.42,6.31,9.89,10.09"/><path class="cls-15" d="M37.79,44a4.55,4.55,0,0,1-2.94-1.54,4.21,4.21,0,0,1-.58-2.57s1.19.91,1.91,1.34a2.21,2.21,0,0,0,1.37.59A1.56,1.56,0,0,1,37.79,44Z"/><path class="cls-16" d="M20.8,73.8l-1.14,8.78c0,1.83-2.25,3.31-5,3.31A6.28,6.28,0,0,1,11,84.83s0,0,0,0a2.82,2.82,0,0,1-1.34-2.25L8.5,73.8Z"/><path class="cls-16" d="M20.8,73.8l-1.14,8.78c0,1.83-2.25,3.31-5,3.31A6.28,6.28,0,0,1,11,84.83c3.77,1.39,6.84-.13,7-1.56.07-.83.2-9.48.2-9.48Z"/><ellipse class="cls-17" cx="14.65" cy="73.8" rx="6.15" ry="4.06"/><path class="cls-18" d="M20.32,73.8a2.59,2.59,0,0,1-.25,1.1c-.71,1.52-2.86,2.63-5.41,2.63s-4.48-1-5.29-2.39A2.64,2.64,0,0,1,9,73.8C9,71.73,11.51,70,14.65,70S20.32,71.73,20.32,73.8Z"/><path class="cls-11" d="M20.06,74.9c-.71,1.52-2.86,2.63-5.41,2.63s-4.48-1-5.29-2.39c.73-1.52,2.88-2.62,5.42-2.62S19.25,73.51,20.06,74.9Z"/><path class="cls-11" d="M18.64,83.27a5.47,5.47,0,0,1,1.21-.62c.73-.17,1.18.07,1.56-2.25l.32,1-.8,1.25-.44.46s-.37.18-.42.19l-.68.09Z"/><path class="cls-17" d="M18.34,77.49a6,6,0,0,0,1.56-1.12.13.13,0,0,1,.15,0,3.51,3.51,0,0,1,2,1.78,4.27,4.27,0,0,1-.93,4.78,2.43,2.43,0,0,1-2.49.39c0-.09,1.23.35,2-.4a4.33,4.33,0,0,0,.36-4.2C20.52,77.91,18.33,77.65,18.34,77.49Z"/><path class="cls-11" d="M96.86,99.16a43.64,43.64,0,0,1-7.28.62c-5.49.13-11.78.08-18,2.33a28.94,28.94,0,0,0-2.78,1.18,55.33,55.33,0,0,1,3.74-9.76C76,87.44,93.94,78.47,98.19,80.23a1.31,1.31,0,0,1,.5.38C100.44,82.71,98.63,91.36,96.86,99.16Z"/><path class="cls-19" d="M96.86,99.16a43.64,43.64,0,0,1-7.28.62c-5.49.13-11.78.08-18,2.33a46.8,46.8,0,0,1,3.18-8c2.54-4.51,13-10.6,20-12.74a3.52,3.52,0,0,1,4.53,3.56A98.12,98.12,0,0,1,96.86,99.16Z"/></g></g></svg>