<svg xmlns="http://www.w3.org/2000/svg" xmlns:xlink="http://www.w3.org/1999/xlink" viewBox="0 0 124.16 120.2"><defs><style>.cls-1,.cls-14{fill:none;stroke-miterlimit:10;}.cls-1{stroke:#d1dced;stroke-linecap:round;stroke-width:0.52px;stroke-dasharray:3.11 2.07;}.cls-2{fill:#f5f8ff;}.cls-3{fill:#dce4ef;}.cls-4{fill:#fff;}.cls-5{fill:#8d9bb2;}.cls-6{fill:#cedaef;}.cls-7{fill:#d9e4f9;}.cls-12,.cls-8,.cls-9{opacity:0.68;}.cls-8{fill:url(#linear-gradient);}.cls-9{fill:url(#linear-gradient-2);}.cls-10{fill:#ffc401;}.cls-11,.cls-16{opacity:0.5;}.cls-11{fill:url(#linear-gradient-3);}.cls-12{fill:url(#linear-gradient-4);}.cls-13{fill:#3f00c3;}.cls-14{stroke:#3f00c3;stroke-width:0.27px;}.cls-15{fill:#e8effc;}.cls-16{fill:#d7e2f2;}.cls-17{fill:#bec9e5;}.cls-18{fill:#e2e6fa;}.cls-19{fill:#dfe6fe;}.cls-20{fill:#d1dced;}</style><linearGradient id="linear-gradient" x1="63.55" y1="84.25" x2="79.23" y2="84.25" gradientTransform="translate(-19.58 97.74) rotate(-73.95)" gradientUnits="userSpaceOnUse"><stop offset="0" stop-color="#b8b9eb"/><stop offset="1" stop-color="#c7cbf9" stop-opacity="0"/></linearGradient><linearGradient id="linear-gradient-2" x1="52.66" y1="68.87" x2="88.53" y2="68.87" gradientTransform="translate(16.57 -17.14) rotate(16.05)" xlink:href="#linear-gradient"/><linearGradient id="linear-gradient-3" x1="92.76" y1="33.29" x2="104.15" y2="57.12" gradientTransform="translate(18 -14.56) rotate(16.05)" gradientUnits="userSpaceOnUse"><stop offset="0" stop-color="#e29f1a"/><stop offset="1" stop-color="#ffc401" stop-opacity="0"/></linearGradient><linearGradient id="linear-gradient-4" x1="91.02" y1="63.42" x2="89.12" y2="54.96" gradientTransform="translate(18 -14.56) rotate(16.05)" xlink:href="#linear-gradient"/></defs><title>start-3</title><g id="Capa_2" data-name="Capa 2"><g id="OBJECTS"><path class="cls-1" d="M20.26,31.17a44.2,44.2,0,0,0,19.42-9.42A50.62,50.62,0,0,0,49.36,11.1C55,2.48,76.42-7.67,100.15,9.94s21.62,31.45,18.71,44.41.06,26.48-3.94,37.24c-3.26,8.77-17.08,34.58-39,27S57.1,97.79,40.7,86.87,16.19,86.58,3.48,69.42C-2,62-2.83,36,20.26,31.17Z"/><path class="cls-2" d="M118.13,72.84a67,67,0,0,1-7.35,8.61c-8.14,8.17-7.17,25.84-33.53,29.41-16.92,2.29-24.81-5.94-28.3-12.13-3.7-6.57-9.27-12.39-16.56-14.39-4.07-1.12-15,3.32-23.4-6.93C-2,64.05,5.17,37.31,31.76,30.14,55.86,23.66,62.56-6.67,93.54,16.8,104.31,25,112.6,32.31,117.83,39.44,125.8,50.36,126.62,60.78,118.13,72.84Z"/><circle class="cls-3" cx="43.35" cy="81.95" r="20" transform="translate(-47.39 100.94) rotate(-73.95)"/><circle class="cls-4" cx="43.35" cy="81.95" r="18.4" transform="translate(-47.39 100.94) rotate(-73.95)"/><path class="cls-5" d="M43.28,82.16h0a.56.56,0,0,1-.38-.69L47.35,66a.56.56,0,0,1,.69-.38h0a.56.56,0,0,1,.38.69L44,81.78A.56.56,0,0,1,43.28,82.16Z"/><path class="cls-6" d="M43.28,82.16h0a.56.56,0,0,1-.38-.69L47.35,66a.56.56,0,0,1,.69-.38h0a.56.56,0,0,1,.38.69L44,81.78A.56.56,0,0,1,43.28,82.16Z"/><path class="cls-6" d="M43.95,81.4h0a.56.56,0,0,1-.29.73L31.54,87.42a.56.56,0,0,1-.73-.29h0a.56.56,0,0,1,.29-.73l12.12-5.28A.56.56,0,0,1,43.95,81.4Z"/><circle class="cls-6" cx="43.35" cy="81.95" r="1.18" transform="translate(-47.39 100.94) rotate(-73.95)"/><path class="cls-7" d="M73.8,54.31s5.1.3,7.11,6.22c0,0,8.35-3.48,6.93-11.47s-10-.55-10-.55Z"/><path class="cls-8" d="M73.8,54.31s5.1.3,7.11,6.22c0,0,8.35-3.48,6.93-11.47s-10-.55-10-.55Z"/><path class="cls-7" d="M53.38,46.62s2.26,5,11.83,8.9c9.9,4,16.8-7.76,17.39-12.23s-10.19-8-10.19-8l-13.9,2.35Z"/><path class="cls-7" d="M83.16,61.53S76,69.33,72,71.67c-6.48,3.79-22.6,1.65-26.1-.23,0,0-.48,2.15.67,3.29s13.34,4.62,19.58,5.41,9.9.78,15.26-2.39"/><path class="cls-9" d="M83.16,61.53S76,69.33,72,71.67c-6.48,3.79-22.6,1.65-26.1-.23,0,0-.48,2.15.67,3.29s13.34,4.62,19.58,5.41,9.9.78,15.26-2.39"/><path class="cls-10" d="M118.13,72.84c-8-.36-16.23.09-18.59,1.37-4.12,2.22-8,3-11.31.52S78.17,68.43,77.36,65.3a8.2,8.2,0,0,1,.09-3.79c1.58-5.15,5.08-6.8,6.78-13.14.69-2.59,4.74-2,6.3-3,3.49-2.23,7.85-2,16.38-2.33a25,25,0,0,0,10.92-3.57C125.8,50.36,126.62,60.78,118.13,72.84Z"/><path class="cls-11" d="M118.13,72.84c-8-.36-16.23.09-18.59,1.37-4.12,2.22-8,3-11.31.52S78.17,68.43,77.36,65.3a8.2,8.2,0,0,1,.09-3.79c1.58-5.15,5.08-6.8,6.78-13.14.69-2.59,4.74-2,6.3-3,3.49-2.23,7.85-2,16.38-2.33a25,25,0,0,0,10.92-3.57C125.8,50.36,126.62,60.78,118.13,72.84Z"/><path class="cls-7" d="M80.24,58.95C84,57.19,93,56.54,96.84,62.2s-5.48,8.63-8.42,8.11S75.94,60.94,80.24,58.95Z"/><path class="cls-12" d="M80.24,58.95C84,57.19,93,56.54,96.84,62.2s-5.48,8.63-8.42,8.11S75.94,60.94,80.24,58.95Z"/><path class="cls-7" d="M83.6,59.38C76,54.93,74.52,73.4,76,84.11a.38.38,0,0,1-.55.43c-6.29-3.61-21.4-6.15-27.3-10.78-1.06-.84-.61-3.68-1.73-4.55-1.27-1-5.34,2.52-1.59,7.11C49,81.43,70,93,79.15,94.21,89,95.5,91.41,63.95,83.6,59.38Z"/><path class="cls-13" d="M98.12,44.25a18.58,18.58,0,0,0-5.39,3.28c-5.24,4.61-12.16,3.89-15.28,3-9.54-2.74-12.35-5.11-15.09-7.31-2.8,6.07-7.07,6.41-7.07,6.41-4.85-2.43-5.73-9.52-4.54-14.09,2.41-9.11,11.18-13.69,20.51-12.36,4.71.67,10.64,1.83,18,3.36,17.51,3.65,20.56-3.72,20.56-3.72a0,0,0,0,0,0,0c.06.43.83,6.81-8.14,11.12.34,0,6.13-1.37,9.34-8.89C112.8,35.31,105.69,41.21,98.12,44.25Z"/><path class="cls-14" d="M67.14,45.5s9.53,9.74,22.2,6.84"/><path class="cls-14" d="M54,31.12S61,21.35,71.64,21.73,85.65,27.37,102,28"/><path class="cls-15" d="M31.7,37.42l-10,8.83c-.55.69-2.3.21-4.9-1.86S13.3,40.71,13.85,40l6.37-11.75Z"/><path class="cls-16" d="M31.7,37.42l-10,8.83c-.55.69-2.3.21-4.9-1.86S13.3,40.71,13.85,40c2.2,4.06,6.51,4.93,7.08,4.58s8.77-8.78,8.77-8.78Z"/><ellipse class="cls-17" cx="25.96" cy="32.84" rx="1.94" ry="7.34" transform="translate(-15.9 32.67) rotate(-51.44)"/><ellipse class="cls-18" cx="25.96" cy="32.84" rx="1.75" ry="6.59" transform="translate(-15.9 32.67) rotate(-51.44)"/><path class="cls-13" d="M26.11,27s-3.71-5.2-3-8.95,5.24-4.51,6.57-1.34-1.78,7.12-1.22,9.53S27.76,29.88,26.11,27Z"/><path class="cls-13" d="M22.9,32.45a4.1,4.1,0,0,0,3.61.27c1.59-.52,4.69-4,7.35-5.15s5.5,1.76,4.72,5-5.85,5.42-10.07,4A22.76,22.76,0,0,1,22.9,32.45Z"/><polygon class="cls-19" points="27.76 61.26 28.91 60.27 27.49 59.73 27.76 61.26"/><path class="cls-19" d="M7.81,64h0a.78.78,0,0,0,.9.63l.62-.11a.78.78,0,0,0,.63-.9h0a.78.78,0,0,0-.9-.63l-.62.11A.78.78,0,0,0,7.81,64Z"/><rect class="cls-20" x="17.69" y="52.8" width="1.55" height="18.6" transform="translate(-39.52 91.01) rotate(-99.94)"/></g></g></svg>