<svg xmlns="http://www.w3.org/2000/svg" viewBox="0 0 155.81 159.16"><defs><style>.cls-1,.cls-3{fill:#d2ebff;}.cls-1{opacity:0.56;}.cls-2{fill:#89caf7;}.cls-4{fill:#073a93;}.cls-5{fill:#1858b5;}.cls-6{fill:#489bff;}.cls-7{fill:#063272;opacity:0.45;}.cls-8{fill:#e6e6e6;}.cls-9{fill:#f49290;}.cls-10{fill:#ffb5b1;}.cls-11{fill:#accfe5;}.cls-12{fill:#ffaa45;}</style></defs><title>save-time</title><g id="Capa_2" data-name="Capa 2"><g id="OBJECTS"><ellipse class="cls-1" cx="76.95" cy="146.35" rx="74.86" ry="12.81"/><path class="cls-2" d="M70.16,138.74c-26.25-5.53-46.26-25-57.86-56.18A162.64,162.64,0,0,1,2.88,38.88L2.43,30,72.62,5.16,142.82,30l-.45,8.9a162.65,162.65,0,0,1-9.43,43.69c-11.6,31.22-31.6,50.65-57.86,56.18l-2.46.52Z"/><path class="cls-3" d="M128.22,39.58,72.62,19.92h0L17,39.58S20.79,114,72.62,125h0C124.46,114,128.22,39.58,128.22,39.58Z"/><polygon class="cls-4" points="72.49 117.38 97.98 113.74 120.39 113.74 140.42 117.66 105.96 135.03 72.49 117.38"/><path class="cls-4" d="M119.28,135.73s-45.1-24.79-50.43-16.67c-7.69,11.74,4.06,17.65,45.94,28.85Z"/><path class="cls-5" d="M131.72,148.12h0a5.29,5.29,0,0,0-2.86-6.91l-10.41-4.31-4,9.77L124.81,151A5.29,5.29,0,0,0,131.72,148.12Z"/><path class="cls-6" d="M117.78,138.48l7.88,3.26a3.58,3.58,0,1,1-2.74,6.62L115,145.1Z"/><path class="cls-7" d="M115.08,145l10.41,4.31a5.28,5.28,0,0,0,6.48-2.07,5.21,5.21,0,0,1-7.16,3.72l-10.41-4.31Z"/><path class="cls-8" d="M118.52,145.19l1.66-4a.4.4,0,0,1,.52-.22h0a.4.4,0,0,1,.22.52l-1.66,4a.4.4,0,0,1-.52.22h0A.4.4,0,0,1,118.52,145.19Z"/><path class="cls-8" d="M121,146.2l1.67-4a.4.4,0,0,1,.52-.22h0a.4.4,0,0,1,.22.52l-1.67,4a.4.4,0,0,1-.52.22h0A.4.4,0,0,1,121,146.2Z"/><path class="cls-8" d="M123.67,147.32l1.66-4a.4.4,0,0,1,.52-.22h0a.4.4,0,0,1,.22.52l-1.66,4a.4.4,0,0,1-.52.22h0A.4.4,0,0,1,123.67,147.32Z"/><path class="cls-6" d="M135.62,102.23c-.69-2.38-4.15-6.42-7.21-14.69-3.19-8.6-16.79-9.53-16.79-9.53l-5.28,2.82L101.07,78s-13.6.93-16.79,9.53c-3.07,8.27-6.52,12.31-7.21,14.69s3.05,17.8,13.8,20h30.95C132.57,120,136.32,104.61,135.62,102.23Z"/><g id="_Grupo_" data-name="&lt;Grupo&gt;"><path class="cls-9" d="M112.21,78.06v4.23s-1,4.72-5.58,5.51a7.18,7.18,0,0,1-5.54-5.51V78.06Z"/></g><path id="_Trazado_" data-name="&lt;Trazado&gt;" class="cls-4" d="M96.09,69.75s-1.57-9.88,2.19-11.08c1-.33.28-3.59,6-3.63,7.81-.05,14-1.11,12.95,14.85Z"/><circle class="cls-10" cx="98.34" cy="70.84" r="2.7"/><circle class="cls-10" cx="114.79" cy="70.84" r="2.7"/><path class="cls-10" d="M115.64,66.27h0a4.26,4.26,0,0,1-2.68-3.58l-1.18.33a18.05,18.05,0,0,1-10-.1l-.94-.24A4.29,4.29,0,0,1,98,66.26h0l-.07,4.38a14.62,14.62,0,0,0,2.8,8,7.52,7.52,0,0,0,12.11,0,14.62,14.62,0,0,0,2.8-8V66.28Z"/><rect class="cls-3" x="89.53" y="102.49" width="34.18" height="22.78" rx="2.87" ry="2.87"/><circle class="cls-2" cx="106.52" cy="113.65" r="3.55"/><path class="cls-4" d="M92.52,135.73s45.1-24.79,50.43-16.67c7.69,11.74-4.06,17.65-45.94,28.85Z"/><path class="cls-5" d="M80.08,148.12h0a5.29,5.29,0,0,1,2.86-6.91l10.41-4.31,4,9.77L87,151A5.29,5.29,0,0,1,80.08,148.12Z"/><path class="cls-6" d="M96.76,145.1l-7.88,3.26a3.58,3.58,0,1,1-2.74-6.62L94,138.48Z"/><path class="cls-7" d="M96.72,145l-10.41,4.31a5.28,5.28,0,0,1-6.48-2.07A5.21,5.21,0,0,0,87,151l10.41-4.31Z"/><path class="cls-8" d="M93.28,145.19l-1.66-4a.4.4,0,0,0-.52-.22h0a.4.4,0,0,0-.22.52l1.66,4a.4.4,0,0,0,.52.22h0A.4.4,0,0,0,93.28,145.19Z"/><path class="cls-8" d="M90.82,146.2l-1.66-4a.4.4,0,0,0-.52-.22h0a.4.4,0,0,0-.22.52l1.66,4a.4.4,0,0,0,.52.22h0A.4.4,0,0,0,90.82,146.2Z"/><path class="cls-8" d="M88.13,147.32l-1.66-4a.4.4,0,0,0-.52-.22h0a.4.4,0,0,0-.22.52l1.66,4a.4.4,0,0,0,.52.22h0A.4.4,0,0,0,88.13,147.32Z"/><path class="cls-4" d="M23.7,117.7S11.75,98.62,15.45,95.86s7.32,8.47,9.22,6.66-6.59-17.84-2.59-21.29,3.71,8.26,7.11,10.44-1.84-16,2.23-18.8,6,6.19,6,6.19S42,61.1,48,64.62s-9.31,21.61-5.7,21S49.65,78.88,52.79,83,35.41,97.58,38.69,97.31,47.81,93,48.82,96.6,32.18,106.79,34,108.05s11.06-5.87,12.51-.62S27.36,121,23.7,117.7Z"/><path class="cls-3" d="M22.25,125.15a62.35,62.35,0,0,0,5.53-12c.76-2.23,1.4-4.53,2-6.76.28-1,.57-2,.86-3A147.28,147.28,0,0,1,44.49,71l.23.13a147,147,0,0,0-13.8,32.29c-.29,1-.58,2-.86,3-.63,2.23-1.27,4.54-2,6.77a62.65,62.65,0,0,1-5.55,12Z"/><path class="cls-3" d="M35.28,89.85a.13.13,0,0,1-.05-.07,61.09,61.09,0,0,1-2.7-12.66.13.13,0,1,1,.27,0,60.8,60.8,0,0,0,2.69,12.6.13.13,0,0,1-.2.15Z"/><path class="cls-3" d="M33.6,94.8l0,0a.13.13,0,0,1,0-.19,106.29,106.29,0,0,1,11.64-7.74,10.23,10.23,0,0,1,2.45-1,.13.13,0,1,1,.06.26,10,10,0,0,0-2.38,1A106.07,106.07,0,0,0,33.76,94.8.13.13,0,0,1,33.6,94.8Z"/><path class="cls-3" d="M30.93,102.93l0,0a54.4,54.4,0,0,1-5-8.89,68.93,68.93,0,0,1-2.39-7.14.13.13,0,0,1,.26-.08,68.8,68.8,0,0,0,2.38,7.11,54.17,54.17,0,0,0,4.94,8.84.13.13,0,0,1-.19.19Z"/><path class="cls-3" d="M30.89,103.06a.13.13,0,0,1,.12-.24,2.3,2.3,0,0,0,1.21,0,20.25,20.25,0,0,0,3.19-1l.58-.21c3.05-1.11,6.24-2,9.32-2.79a.13.13,0,0,1,.07.26c-3.08.82-6.26,1.67-9.3,2.78l-.58.21a20.46,20.46,0,0,1-3.23,1,2.58,2.58,0,0,1-1.35,0Z"/><path class="cls-3" d="M27.62,113.78c-3.57-2.46-7.66-9.07-10.08-14a.13.13,0,1,1,.24-.12c2.41,4.89,6.47,11.46,10,13.89a.13.13,0,0,1-.15.22Z"/><path class="cls-3" d="M27.85,113.88l-.09-.07a.13.13,0,0,1,0-.19.14.14,0,0,1,.19,0,2.27,2.27,0,0,0,2,.08l13-3.57a.13.13,0,1,1,.07.26l-13,3.57A2.6,2.6,0,0,1,27.85,113.88Z"/><path class="cls-6" d="M22.11,117.35s-20.68-9-19.2-13.34,10.85,2.83,11.39.27S-1.27,93.3.08,88.18s7.75,4.72,11.79,4.58S1.29,80.63,3,76s8.49,1.68,8.49,1.68-6.47-17.38.54-17.92,4.58,23.11,7.21,20.55,2.22-9.7,7.14-8.08S20.36,94.11,22.92,92s5.05-8.76,7.95-6.33-7.95,17.85-5.73,17.85,5.79-11.12,10-7.61S27,118,22.11,117.35Z"/><path class="cls-3" d="M25.14,124.32a62.44,62.44,0,0,0-2.25-13c-.64-2.27-1.41-4.53-2.16-6.73-.34-1-.68-2-1-3A147.47,147.47,0,0,1,12.77,67L13,67A147.24,147.24,0,0,0,20,101.48c.33,1,.67,2,1,3,.75,2.2,1.53,4.47,2.17,6.74a62.74,62.74,0,0,1,2.25,13.09Z"/><path class="cls-3" d="M15.87,87.8a.13.13,0,0,1-.08,0,61.18,61.18,0,0,1-9.41-8.91.13.13,0,1,1,.21-.17,60.89,60.89,0,0,0,9.37,8.87.13.13,0,0,1-.08.24Z"/><path class="cls-3" d="M17.29,92.84h0a.13.13,0,0,1-.08-.17,106.45,106.45,0,0,1,5.21-13,10.25,10.25,0,0,1,1.43-2.25.13.13,0,0,1,.2.18,10,10,0,0,0-1.39,2.19,106.2,106.2,0,0,0-5.2,13A.13.13,0,0,1,17.29,92.84Z"/><path class="cls-3" d="M19.7,101.06h-.05a54.49,54.49,0,0,1-9.14-4.52,69,69,0,0,1-6-4.53.13.13,0,1,1,.17-.21,68.87,68.87,0,0,0,6,4.52,54.23,54.23,0,0,0,9.09,4.49.13.13,0,0,1-.05.26Z"/><path class="cls-3" d="M19.73,101.19a.13.13,0,0,1,0-.27,2.3,2.3,0,0,0,1-.68,20.29,20.29,0,0,0,2.07-2.63l.36-.5c1.89-2.65,4-5.16,6.11-7.59a.13.13,0,1,1,.2.18c-2.07,2.42-4.21,4.93-6.09,7.57l-.35.5a20.48,20.48,0,0,1-2.1,2.66,2.58,2.58,0,0,1-1.12.75Z"/><path class="cls-3" d="M23.12,111.89c-4.34,0-11.47-3.14-16.26-5.82a.13.13,0,1,1,.13-.23c4.76,2.67,11.84,5.79,16.13,5.79a.13.13,0,1,1,0,.27Z"/><path class="cls-3" d="M23.37,111.85h-.12a.13.13,0,0,1-.12-.15.14.14,0,0,1,.15-.12c.65.05,1.2-.48,1.7-1.08l8.73-10.34a.13.13,0,1,1,.21.17l-8.73,10.34A2.6,2.6,0,0,1,23.37,111.85Z"/><path class="cls-3" d="M13,120.54,16.26,141a6,6,0,0,0,5.91,5H32.23a6,6,0,0,0,5.91-5l3.3-20.44Z"/><path class="cls-11" d="M41.44,120.54H13l.46,2.83h22L32.52,141a6,6,0,0,1-5.91,5h5.61a6,6,0,0,0,5.91-5L41,123.37h0Z"/><path class="cls-3" d="M41.75,114.66H12.64a3,3,0,0,0-3,3h0a3,3,0,0,0,3,3H41.75a3,3,0,0,0,3-3h0A3,3,0,0,0,41.75,114.66Z"/><rect class="cls-12" x="91.15" y="29.43" width="64.67" height="19.97" rx="3.02" ry="3.02"/><rect class="cls-4" x="95.83" y="38.38" width="10.57" height="8.02" rx="1.26" ry="1.26"/><path class="cls-4" d="M104.77,37.47h-1V35.89a2.66,2.66,0,0,0-5.32,0v1.58h-1V35.89a3.65,3.65,0,0,1,7.31,0Z"/><path class="cls-12" d="M102.23,41.33a1.11,1.11,0,1,0-1.66,1l-.38,2.2h1.87l-.39-2.2A1.11,1.11,0,0,0,102.23,41.33Z"/><circle class="cls-4" cx="118.11" cy="40.02" r="1.83"/><circle class="cls-4" cx="125.09" cy="40.02" r="1.83"/><circle class="cls-4" cx="132.06" cy="40.02" r="1.83"/><circle class="cls-4" cx="139.04" cy="40.02" r="1.83"/><circle class="cls-4" cx="146.02" cy="40.02" r="1.83"/><path class="cls-6" d="M59.65,3.12V27.46a3.13,3.13,0,0,1-3.12,3.12H12a3.13,3.13,0,0,1-3.13-3.12V3.12A3.13,3.13,0,0,1,12,0H56.53A3.13,3.13,0,0,1,59.65,3.12Z"/><rect class="cls-4" x="8.91" y="8.53" width="50.73" height="6.88"/><path class="cls-4" d="M55.72,19.41H43.09a1.15,1.15,0,0,0-1.15,1.15h0a1.15,1.15,0,0,0,1.15,1.15H55.72a1.15,1.15,0,0,0,1.15-1.15h0A1.15,1.15,0,0,0,55.72,19.41Z"/><path class="cls-4" d="M55.72,23.9H50A1.15,1.15,0,0,0,48.83,25h0A1.15,1.15,0,0,0,50,26.19h5.74A1.15,1.15,0,0,0,56.86,25h0A1.15,1.15,0,0,0,55.72,23.9Z"/></g></g></svg>