<svg xmlns="http://www.w3.org/2000/svg" viewBox="0 0 149.71 172.74"><defs><style>.cls-1,.cls-4{fill:#d2ebff;}.cls-1{opacity:0.56;}.cls-2{fill:#67b8ef;}.cls-3{fill:#34648c;opacity:0.25;}.cls-5{fill:#accfe5;}.cls-6{fill:#073a93;}.cls-7{fill:#89caf7;}.cls-8{fill:#489bff;}.cls-9{fill:#fff;}.cls-10{fill:#ffaa45;}</style></defs><title>components</title><g id="Capa_2" data-name="Capa 2"><g id="OBJECTS"><ellipse class="cls-1" cx="74.86" cy="159.93" rx="74.86" ry="12.81"/><path class="cls-2" d="M134.6,110.17c0-9.62-6.79-19.25-15.17-19.25s-15.17,9.64-15.17,19.25,6.79,17.41,15.17,17.41S134.6,119.78,134.6,110.17Z"/><path class="cls-3" d="M119.44,90.92a11.21,11.21,0,0,0-3.89.73C122,94,126.82,102.1,126.82,110.17S122,125,115.54,127a13.32,13.32,0,0,0,3.89.6c8.38,0,15.17-7.8,15.17-17.41S127.81,90.92,119.44,90.92Z"/><path class="cls-2" d="M46,110.17c0-9.62-6.79-19.25-15.17-19.25s-15.17,9.64-15.17,19.25,6.79,17.41,15.17,17.41S46,119.78,46,110.17Z"/><path class="cls-3" d="M30.84,90.92a11.21,11.21,0,0,0-3.89.73C33.44,94,38.22,102.1,38.22,110.17S33.44,125,26.95,127a13.32,13.32,0,0,0,3.89.6c8.38,0,15.17-7.8,15.17-17.41S39.22,90.92,30.84,90.92Z"/><path class="cls-4" d="M17.2,126.75l3.3,20.44a6,6,0,0,0,5.91,5H36.47a6,6,0,0,0,5.91-5l3.3-20.44Z"/><path class="cls-5" d="M45.68,126.75H17.2l.46,2.83h22l-2.84,17.61a6,6,0,0,1-5.91,5h5.61a6,6,0,0,0,5.91-5l2.84-17.61h0Z"/><path class="cls-4" d="M46,120.87H16.88a3,3,0,0,0-3,3h0a3,3,0,0,0,3,3H46a3,3,0,0,0,3-3h0A3,3,0,0,0,46,120.87Z"/><path class="cls-4" d="M104.53,126.75l3.3,20.44a6,6,0,0,0,5.91,5H123.8a6,6,0,0,0,5.91-5l3.3-20.44Z"/><path class="cls-5" d="M133,126.75H104.53l.46,2.83h22l-2.84,17.61a6,6,0,0,1-5.91,5h5.61a6,6,0,0,0,5.91-5l2.84-17.61h0Z"/><path class="cls-4" d="M133.33,120.87H104.21a3,3,0,0,0-3,3h0a3,3,0,0,0,3,3h29.12a3,3,0,0,0,3-3h0A3,3,0,0,0,133.33,120.87Z"/><path class="cls-6" d="M110.52,86.44h18.34a4.43,4.43,0,0,0,4.45-4.3q0-.08,0-.17a6.86,6.86,0,0,0-8.53-6.65,5.85,5.85,0,0,0-11.49.34,5.85,5.85,0,0,0-6.59,8.6A4.43,4.43,0,0,0,110.52,86.44Z"/><path class="cls-7" d="M103.92,20.95l-65.68-.14a9.31,9.31,0,0,0-9.3,9.27l-.22,112a9.31,9.31,0,0,0,9.26,9.3l65.68.14a9.31,9.31,0,0,0,9.3-9.26l.22-112A9.31,9.31,0,0,0,103.92,20.95Z"/><path class="cls-4" d="M103.33,28.62l-7.21,0a1.81,1.81,0,0,0-1.51.81L92.91,32A9.49,9.49,0,0,1,85,36.22l-27.87-.06a9.49,9.49,0,0,1-7.91-4.28l-1.69-2.57A1.81,1.81,0,0,0,46,28.5l-7.2,0A1.81,1.81,0,0,0,37,30.29l-.22,111.6a1.81,1.81,0,0,0,1.81,1.81l64.53.13a1.81,1.81,0,0,0,1.82-1.81l.22-111.59A1.81,1.81,0,0,0,103.33,28.62Z"/><rect class="cls-6" x="41.33" y="121.8" width="56.94" height="34.57" rx="2.66" ry="2.66" transform="translate(0.29 -0.15) rotate(0.12)"/><path class="cls-8" d="M91.72,151.67l-42.88,0a.6.6,0,0,0-.6.6v.05a.6.6,0,0,0,.6.6l42.88,0a.6.6,0,0,0,.6-.6v-.05A.6.6,0,0,0,91.72,151.67Z"/><path class="cls-7" d="M91.72,151.67l-30.35,0v1.25l30.33,0a.6.6,0,0,0,.6-.6v-.05A.6.6,0,0,0,91.72,151.67Z"/><circle class="cls-9" cx="61.22" cy="152.29" r="1.39"/><ellipse class="cls-9" cx="69.82" cy="136.42" rx="8.41" ry="8.21"/><path class="cls-6" d="M68.47,133.73l4,2a1,1,0,0,1,0,1.8l-4,2a1,1,0,0,1-1.45-.9v-4A1,1,0,0,1,68.47,133.73Z"/><rect class="cls-8" x="81.89" y="37.09" width="53.3" height="32.36" rx="2.49" ry="2.49" transform="translate(0.11 -0.23) rotate(0.12)"/><path class="cls-6" d="M121,44.81H96.08A1.69,1.69,0,0,0,94.4,46.5h0a1.69,1.69,0,0,0,1.69,1.69H121a1.69,1.69,0,0,0,1.69-1.69h0A1.69,1.69,0,0,0,121,44.81Z"/><path class="cls-6" d="M115.09,52.62H102a1.69,1.69,0,0,0-1.69,1.69h0A1.69,1.69,0,0,0,102,56h13.09a1.69,1.69,0,0,0,1.69-1.69h0A1.69,1.69,0,0,0,115.09,52.62Z"/><path class="cls-6" d="M119.17,60.32H97.91A1.69,1.69,0,0,0,96.23,62h0a1.69,1.69,0,0,0,1.69,1.69h21.25A1.69,1.69,0,0,0,120.86,62h0A1.69,1.69,0,0,0,119.17,60.32Z"/><path class="cls-2" d="M12.85,55.69h23.6a5.71,5.71,0,0,0,5.73-5.53q0-.11,0-.21a8.82,8.82,0,0,0-11-8.56,7.53,7.53,0,0,0-14.78.44A7.53,7.53,0,0,0,7.93,52.9,5.7,5.7,0,0,0,12.85,55.69Z"/><path class="cls-8" d="M77.52,15.69H95.86a4.43,4.43,0,0,0,4.45-4.3c0-.06,0-.11,0-.17a6.86,6.86,0,0,0-8.53-6.65,5.85,5.85,0,0,0-11.49.34,5.85,5.85,0,0,0-6.59,8.6A4.43,4.43,0,0,0,77.52,15.69Z"/><rect class="cls-10" x="2.81" y="65.81" width="64.21" height="38.98" rx="3" ry="3" transform="translate(0.18 -0.07) rotate(0.12)"/><path class="cls-9" d="M60.78,78.61H34.37a1.13,1.13,0,0,0-1.12,1.12h0a1.13,1.13,0,0,0,1.12,1.12H60.78a1.13,1.13,0,0,0,1.12-1.12h0A1.13,1.13,0,0,0,60.78,78.61Z"/><path class="cls-9" d="M54.83,84.15H34.37a1.13,1.13,0,0,0-1.12,1.12h0a1.13,1.13,0,0,0,1.12,1.12H54.83A1.13,1.13,0,0,0,56,85.27h0A1.13,1.13,0,0,0,54.83,84.15Z"/><rect class="cls-9" x="33.25" y="89.42" width="19.9" height="2.24" rx="1.12" ry="1.12"/><ellipse class="cls-9" cx="18.06" cy="79.55" rx="4.23" ry="4.38"/><path class="cls-9" d="M23.45,87.08l-2.55-.83a9.16,9.16,0,0,0-5.66,0l-2.57.83A3.84,3.84,0,0,0,10,90.73v4.13H26.11V90.73A3.84,3.84,0,0,0,23.45,87.08Z"/></g></g></svg>