<svg xmlns="http://www.w3.org/2000/svg" viewBox="0 0 150.16 179.95"><defs><style>.cls-1,.cls-3{fill:#d2ebff;}.cls-1{opacity:0.56;}.cls-2{fill:#89caf7;}.cls-4{fill:#073a93;}.cls-5{fill:#489bff;}.cls-6{fill:#1677d8;}.cls-7{fill:#ffb5b1;}.cls-8{fill:#053272;}.cls-9{fill:#f6ba8e;}.cls-10{fill:#ffaa45;}.cls-11{fill:#fff;}.cls-12{fill:#accfe5;}</style></defs><title>security</title><g id="Capa_2" data-name="Capa 2"><g id="OBJECTS"><ellipse class="cls-1" cx="75.3" cy="167.14" rx="74.86" ry="12.81"/><circle class="cls-2" cx="75.17" cy="68.49" r="61"/><circle class="cls-3" cx="75.17" cy="68.49" r="47.33"/><path class="cls-4" d="M87.31,86.66A1.82,1.82,0,0,1,86,86.13L71.75,71.87a1.82,1.82,0,0,1-.53-1.29V36a1.82,1.82,0,1,1,3.64,0V69.82L88.59,83.55a1.82,1.82,0,0,1-1.29,3.11Z"/><rect class="cls-5" x="92.92" width="50.79" height="36.53" rx="12.21" ry="12.21"/><path class="cls-2" d="M87.09,92.54,83,88.42A23.27,23.27,0,1,1,66.71,45.61V38.8A30,30,0,1,0,88,93.13,2.48,2.48,0,0,1,87.09,92.54Z"/><path class="cls-6" d="M35.85,76.79S29,78.26,25.2,93c-1.32,5.2,8.34,17.21,8.34,17.21Z"/><path class="cls-4" d="M46.37,163.38l-.59,2.46a1.5,1.5,0,0,0,1,1.85L60.6,171a1.65,1.65,0,0,0,1.77-2.24c-.55-1.47-5.77-4.28-8.51-6l-5.54-1.54Z"/><path class="cls-7" d="M68.45,58.13s1-6.48,2.57-6.18h0a1.12,1.12,0,0,1,.78,1l.13,1.7,2.32-3.83a.88.88,0,0,1,1.5,0c.72,1.11,1.83,2.07,1,4a19.12,19.12,0,0,1-4.43,5.43l-1.24-.29Z"/><polygon class="cls-8" points="44.14 109.26 58.81 131.6 55.02 163.79 46.55 163.21 49.4 137.07 36.24 120.17 44.14 109.26"/><path class="cls-4" d="M47.15,60.87s-.77-7.18-5.25-6.36C34.56,55.86,29.16,62,35.79,72.05l6.15-1.94Z"/><path class="cls-4" d="M15.37,166.81v2.53a1.5,1.5,0,0,0,1.42,1.56H31a1.65,1.65,0,0,0,1.2-2.59c-.88-1.3-6.61-2.82-9.68-3.88l-5.75-.21Z"/><path class="cls-4" d="M30.13,111.42H45.69L23.53,164.75l-8.11,2.18,13.66-44.3S29.46,116.23,30.13,111.42Z"/><path class="cls-5" d="M45,76.3s6.39,23.36,5,35.38l-1.33.43A31.82,31.82,0,0,1,28.52,112h0s0-11,.79-20.58c.45-5.65,2.29-14.37,8.13-15l.15-.1Z"/><path class="cls-7" d="M35.73,71.68,37,78l6.32-1.29-.46-2.27a6,6,0,0,0,1.89-.07c3.59-.73,4.18-4.52,3.28-8.91l-.91-4.66A14.12,14.12,0,0,1,41.37,64l-.78,3.32Z"/><ellipse class="cls-7" cx="39.14" cy="68.43" rx="1.78" ry="1.89" transform="translate(-12.91 9.23) rotate(-11.55)"/><path class="cls-9" d="M40.58,67.46"/><path class="cls-5" d="M37,76.47l18-1.72a3.13,3.13,0,0,0,2.38-1.49L68.33,57.63l5,2L61.16,80.1A4.11,4.11,0,0,1,58.37,82L38.66,85.62a4.65,4.65,0,0,1-5.45-4.69h0A4.65,4.65,0,0,1,37,76.47Z"/><path class="cls-7" d="M47.43,63.35a31.87,31.87,0,0,1,2.27,3.54c0,.27-1.83,1.17-1.83,1.17Z"/><path class="cls-10" d="M29.76,15h-20A9.77,9.77,0,0,0,0,24.73v8.93A9.77,9.77,0,0,0,9.74,43.4h20a9.64,9.64,0,0,0,2.39-.31l7.35,7.35V24.73A9.77,9.77,0,0,0,29.76,15Z"/><circle class="cls-4" cx="10.72" cy="28.8" r="2.01"/><circle class="cls-4" cx="19.3" cy="28.8" r="2.01"/><circle class="cls-4" cx="27.56" cy="28.8" r="2.01"/><path class="cls-11" d="M134.17,10.8H104.75A1.25,1.25,0,0,0,103.5,12h0a1.25,1.25,0,0,0,1.25,1.25h29.42A1.25,1.25,0,0,0,135.42,12h0A1.25,1.25,0,0,0,134.17,10.8Z"/><path class="cls-11" d="M127.54,17H104.75a1.25,1.25,0,0,0-1.25,1.25h0a1.25,1.25,0,0,0,1.25,1.25h22.79a1.25,1.25,0,0,0,1.25-1.25h0A1.25,1.25,0,0,0,127.54,17Z"/><path class="cls-11" d="M124.42,22.84H104.75a1.25,1.25,0,0,0-1.25,1.25h0a1.25,1.25,0,0,0,1.25,1.25h19.67a1.25,1.25,0,0,0,1.25-1.25h0A1.25,1.25,0,0,0,124.42,22.84Z"/><path class="cls-5" d="M115.51,134.64c.45-27.22-11.71-38.39-11.71-38.39-3,15,1.77,31.1,4.41,38.39Z"/><path class="cls-5" d="M122.14,134.64c13.26-18.07,11.12-32.24,11.12-32.24-11.45,9.55-17.37,25.4-19.43,31.94l.34.3Z"/><path class="cls-4" d="M130.12,134.64c11.3-11.44,13.63-20.67,13.63-20.67a48.76,48.76,0,0,0-24.36,20.67Z"/><path class="cls-4" d="M110,134.64c-4.33-19.57-14.88-25.48-14.88-25.48.23,10.13,4.85,19.8,8.16,25.48Z"/><path class="cls-4" d="M121.71,134.64c5.73-31.87-3.43-44.15-3.43-44.15-10.93,11.09-6.79,37.31-5.48,44.15Z"/><path class="cls-3" d="M119.19,134.44c-.84-11.76-1.41-23.63-1.65-35.37a.25.25,0,0,0-.25-.24h0a.25.25,0,0,0-.25.26c.25,11.74.82,23.61,1.65,35.36Z"/><path class="cls-3" d="M111.7,134.44h.52a121.59,121.59,0,0,1-3.39-14.1l-3.67-18.5a.25.25,0,0,0-.29-.2.25.25,0,0,0-.2.29l3.67,18.5A123.44,123.44,0,0,0,111.7,134.44Z"/><path class="cls-3" d="M106.49,134.44c-3-6.44-5.79-13-8.22-19.7a.25.25,0,1,0-.47.17c2.41,6.6,5.14,13.14,8.14,19.53Z"/><path class="cls-3" d="M120.67,134.44c.47-.89.92-1.8,1.31-2.73a48.9,48.9,0,0,0,1.8-5.52c.31-1.08.62-2.2,1-3.29a81.83,81.83,0,0,1,3.11-7.67c1-2.28,2.07-4.64,2.9-7a.25.25,0,0,0-.47-.16c-.83,2.38-1.87,4.73-2.88,7a82.32,82.32,0,0,0-3.13,7.71c-.36,1.09-.68,2.22-1,3.31a48.58,48.58,0,0,1-1.78,5.47c-.41,1-.9,2-1.41,2.92Z"/><path class="cls-3" d="M122.42,134.44c1-1.09,2-2.1,3.06-3.09l13.88-13.22a.25.25,0,0,0-.35-.36L125.13,131c-1.15,1.1-2.32,2.23-3.37,3.46Z"/><path class="cls-3" d="M103.31,139.33l3.3,20.44a6,6,0,0,0,5.91,5h10.06a6,6,0,0,0,5.91-5l3.3-20.44Z"/><path class="cls-12" d="M131.79,139.33H103.31l.46,2.83h22l-2.84,17.61a6,6,0,0,1-5.91,5h5.61a6,6,0,0,0,5.91-5l2.84-17.61h0Z"/><path class="cls-3" d="M132.11,133.45H103a3,3,0,0,0-3,3h0a3,3,0,0,0,3,3h29.12a3,3,0,0,0,3-3h0A3,3,0,0,0,132.11,133.45Z"/></g></g></svg>